<svg xmlns="http://www.w3.org/2000/svg" width="12.993" height="12.957" viewBox="0 0 12.993 12.957"><defs><style>.a{opacity:0.349;}.b{fill:#b0b1b1;}</style></defs><g class="a" transform="translate(0 0)"><path class="b" d="M4.436-2.1A7.524,7.524,0,0,1,6.827-6.8,6.827,6.827,0,0,1,11.653-8.71,5.434,5.434,0,0,1,16.044-6.8a5.847,5.847,0,0,1,1.261,4.7A7.1,7.1,0,0,1,14.914,2.42a7.006,7.006,0,0,1-4.826,1.826A5.552,5.552,0,0,1,5.7,2.42,5.461,5.461,0,0,1,4.436-2.1Z" transform="translate(-4.374 8.71)"/></g></svg>