<svg xmlns="http://www.w3.org/2000/svg" width="63.201" height="65.001" viewBox="0 0 63.201 65.001">
  <g id="_002-api" data-name="002-api" transform="translate(-7.072)">
    <path id="Path_618" data-name="Path 618" d="M68.778,39.38l-2.242-1.295a28.037,28.037,0,0,0,.009-11.175l2.233-1.289a2.989,2.989,0,0,0,1.094-4.083L63.766,10.962a2.989,2.989,0,0,0-4.084-1.094l-2.234,1.29a28.606,28.606,0,0,0-9.68-5.6V2.989A2.993,2.993,0,0,0,44.778,0H32.567a2.993,2.993,0,0,0-2.989,2.989V5.558a28.607,28.607,0,0,0-9.667,5.608l-2.248-1.3a2.989,2.989,0,0,0-4.084,1.094L7.473,21.538a2.989,2.989,0,0,0,1.094,4.083l2.242,1.295A28.04,28.04,0,0,0,10.8,38.091L8.567,39.38a2.993,2.993,0,0,0-1.094,4.084l6.106,10.576a2.993,2.993,0,0,0,4.084,1.094l2.234-1.29a28.608,28.608,0,0,0,9.681,5.6v2.568A2.993,2.993,0,0,0,32.567,65H44.778a2.993,2.993,0,0,0,2.989-2.989V59.443a28.608,28.608,0,0,0,9.667-5.608l2.247,1.3a2.993,2.993,0,0,0,4.083-1.094l6.106-10.576A2.993,2.993,0,0,0,68.778,39.38Zm-.558,3.129L62.114,53.085a1.082,1.082,0,0,1-1.477.4l-2.848-1.644a.954.954,0,0,0-1.125.126,26.647,26.647,0,0,1-10.132,5.877.954.954,0,0,0-.672.911v3.262a1.082,1.082,0,0,1-1.081,1.081H32.567a1.082,1.082,0,0,1-1.081-1.081V58.75a.954.954,0,0,0-.672-.911,26.652,26.652,0,0,1-10.145-5.869.954.954,0,0,0-1.125-.126L16.708,53.48a1.082,1.082,0,0,1-1.477-.4L9.126,42.509a1.083,1.083,0,0,1,.4-1.477L12.355,39.4a.954.954,0,0,0,.454-1.036,26.218,26.218,0,0,1,.01-11.714.954.954,0,0,0-.454-1.036L9.521,23.969a1.081,1.081,0,0,1-.4-1.477l6.106-10.576a1.081,1.081,0,0,1,1.477-.4l2.848,1.644a.954.954,0,0,0,1.125-.126A26.648,26.648,0,0,1,30.814,7.163a.954.954,0,0,0,.672-.911V2.989a1.082,1.082,0,0,1,1.081-1.081H44.778A1.082,1.082,0,0,1,45.86,2.989V6.251a.954.954,0,0,0,.672.911,26.651,26.651,0,0,1,10.145,5.869.954.954,0,0,0,1.125.126l2.835-1.637a1.081,1.081,0,0,1,1.477.4L68.22,22.492a1.081,1.081,0,0,1-.4,1.477L64.991,25.6a.954.954,0,0,0-.454,1.036,26.218,26.218,0,0,1-.01,11.714.954.954,0,0,0,.454,1.036l2.843,1.641A1.083,1.083,0,0,1,68.219,42.509Z" transform="translate(0)" fill="#ed1f30"/>
    <path id="Path_619" data-name="Path 619" d="M123.271,104a19.271,19.271,0,1,0,19.271,19.271A19.293,19.293,0,0,0,123.271,104Zm0,36.635a17.363,17.363,0,1,1,17.363-17.363A17.383,17.383,0,0,1,123.271,140.635Z" transform="translate(-84.599 -90.771)" fill="#ed1f30"/>
    <path id="Path_620" data-name="Path 620" d="M252.516,216h-3.562a.954.954,0,0,0-.954.954V225.1a.954.954,0,0,0,1.908,0V223h2.608a3.5,3.5,0,1,0,0-7Zm0,5.088h-2.608v-3.18h2.608a1.59,1.59,0,1,1,0,3.18Z" transform="translate(-210.282 -188.524)" fill="#ed1f30"/>
    <path id="Path_621" data-name="Path 621" d="M173.916,216.619a.954.954,0,0,0-.893-.619h-1.018a.954.954,0,0,0-.893.619l-3.053,8.141a.954.954,0,1,0,1.787.67l.531-1.416h4.275l.531,1.416a.954.954,0,1,0,1.786-.67Zm-2.824,5.487,1.422-3.792,1.422,3.792Z" transform="translate(-140.456 -188.524)" fill="#ed1f30"/>
    <path id="Path_622" data-name="Path 622" d="M320.954,216a.954.954,0,0,0-.954.954V225.1a.954.954,0,0,0,1.908,0v-8.141A.954.954,0,0,0,320.954,216Z" transform="translate(-273.123 -188.524)" fill="#ed1f30"/>
    <path id="Path_623" data-name="Path 623" d="M304.592,74.516c.662.211,1.322.456,1.962.728a.954.954,0,0,0,.747-1.756c-.694-.3-1.411-.562-2.13-.791a.954.954,0,1,0-.579,1.818Z" transform="translate(-259.095 -63.411)" fill="#ed1f30"/>
    <path id="Path_624" data-name="Path 624" d="M88.156,336.492a.954.954,0,0,0-1.675.914,24.447,24.447,0,0,0,1.3,2.121.954.954,0,1,0,1.573-1.08A22.539,22.539,0,0,1,88.156,336.492Z" transform="translate(-69.207 -293.255)" fill="#ed1f30"/>
    <path id="Path_625" data-name="Path 625" d="M135.288,386.695a22.476,22.476,0,0,1-13.664-6.238.954.954,0,0,0-1.327,1.371,24.389,24.389,0,0,0,14.827,6.769c.028,0,.055,0,.083,0a.954.954,0,0,0,.081-1.9Z" transform="translate(-98.569 -331.826)" fill="#ed1f30"/>
    <path id="Path_626" data-name="Path 626" d="M353.185,96.145a.954.954,0,1,0-1.077,1.575,22.48,22.48,0,0,1,9.028,12.692.954.954,0,1,0,1.842-.5A24.389,24.389,0,0,0,353.185,96.145Z" transform="translate(-300.784 -83.77)" fill="#ed1f30"/>
  </g>
</svg>
