<svg xmlns="http://www.w3.org/2000/svg" width="45" height="58" viewBox="0 0 45 58">
  <g id="_003-javascript" data-name="003-javascript" transform="translate(-6.5)">
    <path id="Path_664" data-name="Path 664" d="M50.949,12.187l-1.361-1.361-9.5-9.505h0L39.312.549A1.867,1.867,0,0,0,37.985,0H8.963C7.776,0,6.5.916,6.5,2.926V56a2.289,2.289,0,0,0,1.836,1.909c.051.014.1.033.152.043A2.437,2.437,0,0,0,8.963,58H49.037a2.437,2.437,0,0,0,.475-.048c.052-.01.1-.029.152-.043A2.289,2.289,0,0,0,51.5,56V13.978A2.3,2.3,0,0,0,50.949,12.187ZM39.5,3.565,47.935,12H39.5ZM8.963,56a.555.555,0,0,1-.2-.049.46.46,0,0,1-.265-.414V41h41V55.537a.46.46,0,0,1-.265.414.555.555,0,0,1-.2.049ZM8.5,39V2.926c0-.217.033-.926.463-.926H37.558a1.54,1.54,0,0,0-.058.391V13.78a2.976,2.976,0,0,0-2-.78,1,1,0,0,0,0,2,1,1,0,0,1,1,1v4a3.975,3.975,0,0,0,1.382,3A3.975,3.975,0,0,0,36.5,26v4a1,1,0,0,1-1,1,1,1,0,0,0,0,2,3,3,0,0,0,3-3V26a2,2,0,0,1,2-2,1,1,0,0,0,0-2,2,2,0,0,1-2-2V16a2.981,2.981,0,0,0-.78-2H49.109a1.54,1.54,0,0,0,.391-.058c0,.015,0,.021,0,.036V39Z" fill="#ed1f30"/>
    <path id="Path_665" data-name="Path 665" d="M25.354,51.43a1.106,1.106,0,0,1-.458.95,2.1,2.1,0,0,1-1.155.28,3,3,0,0,1-.615-.068q-.328-.069-.629-.157c-.2-.06-.385-.123-.554-.191a2.041,2.041,0,0,1-.39-.2l-.7,1.107a3.022,3.022,0,0,0,.67.369q.4.164.827.294a5.982,5.982,0,0,0,.834.191,4.753,4.753,0,0,0,.7.062,5.852,5.852,0,0,0,1.169-.116,2.778,2.778,0,0,0,1-.41,2.151,2.151,0,0,0,.7-.779,2.512,2.512,0,0,0,.26-1.2V43.72H25.354Z" fill="#ed1f30"/>
    <path id="Path_666" data-name="Path 666" d="M34.083,49.064a5.4,5.4,0,0,0-1.019-.581q-.548-.239-1.012-.492a3.03,3.03,0,0,1-.779-.588,1.237,1.237,0,0,1-.314-.882,1.1,1.1,0,0,1,.109-.458,1.459,1.459,0,0,1,.3-.431,1.78,1.78,0,0,1,.438-.321,1.394,1.394,0,0,1,.52-.157,5,5,0,0,1,.807-.014,2.107,2.107,0,0,1,.506.1,1.39,1.39,0,0,1,.294.137,1.566,1.566,0,0,0,.185.109,1.264,1.264,0,0,0,.082-.137c.045-.082.1-.185.164-.308s.132-.255.205-.4.137-.271.191-.39a2.8,2.8,0,0,0-1.039-.376,7.188,7.188,0,0,0-1.271-.116,3.542,3.542,0,0,0-1.169.191,2.944,2.944,0,0,0-.971.554,2.637,2.637,0,0,0-.663.882,2.755,2.755,0,0,0-.248,1.19,2.238,2.238,0,0,0,.314,1.23,3.264,3.264,0,0,0,.793.854,6.173,6.173,0,0,0,1.025.629q.546.267,1.019.533a3.383,3.383,0,0,1,.786.6,1.107,1.107,0,0,1,.314.793,1.453,1.453,0,0,1-.444,1.155,1.885,1.885,0,0,1-1.278.39,3.48,3.48,0,0,1-.588-.055,5.88,5.88,0,0,1-.629-.144c-.21-.06-.412-.123-.608-.191a2.883,2.883,0,0,1-.485-.212l-.287,1.176a2.154,2.154,0,0,0,.554.349,3.661,3.661,0,0,0,.677.226,5.323,5.323,0,0,0,.7.116c.232.022.458.034.677.034a3.771,3.771,0,0,0,1.367-.232,3.052,3.052,0,0,0,1.012-.622,2.786,2.786,0,0,0,.636-.9,2.593,2.593,0,0,0,.226-1.06,2.493,2.493,0,0,0-.314-1.319A2.988,2.988,0,0,0,34.083,49.064Z" fill="#ed1f30"/>
    <path id="Path_667" data-name="Path 667" d="M20.5,20V16a1,1,0,0,1,1-1,1,1,0,0,0,0-2,3,3,0,0,0-3,3v4a2,2,0,0,1-2,2,1,1,0,0,0,0,2,2,2,0,0,1,2,2v4a3,3,0,0,0,3,3,1,1,0,0,0,0-2,1,1,0,0,1-1-1V26a3.975,3.975,0,0,0-1.382-3A3.975,3.975,0,0,0,20.5,20Z" fill="#ed1f30"/>
    <circle id="Ellipse_126" data-name="Ellipse 126" cx="1.5" cy="1.5" r="1.5" transform="translate(27 18)" fill="#ed1f30"/>
    <path id="Path_668" data-name="Path 668" d="M28.5,25a1,1,0,0,0-1,1v3a1,1,0,0,0,2,0V26A1,1,0,0,0,28.5,25Z" fill="#ed1f30"/>
  </g>
</svg>
