<?xml version="1.0" encoding="utf-8"?>
<!-- Generator: Adobe Illustrator 21.0.0, SVG Export Plug-In . SVG Version: 6.00 Build 0)  -->
<svg version="1.1" id="Layer_1" xmlns="http://www.w3.org/2000/svg" xmlns:xlink="http://www.w3.org/1999/xlink" x="0px" y="0px"
	 viewBox="0 0 333 356.8" style="enable-background:new 0 0 333 356.8;" xml:space="preserve">
<style type="text/css">
	.st0{fill:#1668AC;}
</style>
<g>
	<path class="st0" d="M205,194.1h-77l38.5-92.6L205,194.1z M149.6,179.7h33.9l-17-40.8L149.6,179.7z"/>
	<path class="st0" d="M166.5,349.4l-135.4-75L6.8,64.3l159.7-57l159.7,56.9L302,274.4L166.5,349.4z M44.5,265.4l122,67.6l122-67.6
		L310.6,74L166.5,22.6L22.4,74L44.5,265.4z M272.4,271.1H221l-19.1-47.6H131l-19,47.6H60.7L166.5,33.3L272.4,271.1z M230.7,256.7
		h19.5l-83.7-188l-83.7,188h19.5l19.1-47.6h90.3L230.7,256.7z"/>
</g>
</svg>
