<?xml version="1.0" encoding="utf-8"?>
<!-- Generator: Adobe Illustrator 19.0.0, SVG Export Plug-In . SVG Version: 6.00 Build 0)  -->
<svg version="1.1" id="Layer_1" xmlns="http://www.w3.org/2000/svg" xmlns:xlink="http://www.w3.org/1999/xlink" x="0px" y="0px"
	 viewBox="0 0 500 500" style="enable-background:new 0 0 500 500;" xml:space="preserve">
<style type="text/css">
	.st0{fill:#842E2D;}
</style>
<g id="XMLID_1_">
	<path id="XMLID_6_" class="st0" d="M113.1,218.7l-1,4.8h15.6l-8.8,40.9h5.3l8.8-40.9h15.3l1-4.8H113.1z M101.1,247.5h-18l14-23
		L101.1,247.5z M95.7,218.7l-28.2,45.7H73l7.4-12.1h21.6l2.2,12.1h5.6l-8.5-45.7H95.7L95.7,218.7z"/>
	<path id="XMLID_18_" class="st0" d="M363.7,240.9c1.5-5.1,4.2-7.6,8.1-7.6c1.7,0,3.1,0.5,3.9,1.5c1.6,1.9,1.2,5,1,6.2l0,0.2h-13.1
		L363.7,240.9L363.7,240.9z M362,248.8h25.5c1.4-6.7,1.6-10,0.7-12.9c-1.6-6.2-6.5-9.3-14.9-9.3c-6.3,0-12,1.9-15.8,5.5
		c-3.7,3.4-6.4,8.4-7.4,14.7c-1,6-0.3,10.6,2.2,13.7c2.6,3.1,7,4.7,13.2,4.7c9.2,0,16.3-3.5,19.7-9.5l-9.7-2.7c-1.9,3.5-4.8,5-8.2,5
		l-0.2,0c-2,0-3.4-0.6-4.4-1.8c-1.8-2.2-1-5.8-0.7-7.2L362,248.8L362,248.8z M203.4,240.9c1.5-5.1,4.2-7.6,8.1-7.6
		c1.7,0,3.1,0.5,3.9,1.5c1.6,1.9,1.2,5,1,6.2l0,0.2h-13.1L203.4,240.9L203.4,240.9z M201.7,248.8h25.5c1.4-6.7,1.6-10,0.7-12.9
		c-1.6-6.2-6.5-9.3-14.9-9.3c-6.3,0-11.9,1.9-15.8,5.5c-3.7,3.4-6.4,8.4-7.4,14.7c-1,6-0.3,10.6,2.2,13.7c2.6,3.1,7,4.7,13.2,4.7
		c9.2,0,16.3-3.5,19.7-9.5l-9.7-2.7c-1.9,3.5-4.8,5-8.2,5l-0.2,0c-2,0-3.4-0.6-4.4-1.8c-1.8-2.2-1-5.8-0.7-7.2L201.7,248.8
		L201.7,248.8z M322.9,233.2l0.9-5.3h-12.7l-7.5,36.5h13l4.3-21c1-5.1,3.8-7.8,7.7-7.8c1.6,0,2.8,0.5,3.5,1.4
		c1.4,1.8,0.8,4.8,0.4,6.5l-4.3,20.9h13.1l4.6-22.1c0.7-3.2,1.8-8.6-1-12c-1.7-2.1-4.7-3.1-8.8-3.1
		C329.2,227.1,325.2,230.4,322.9,233.2 M398.3,264.9l-7-37H405l1.8,25.1l12.7-25.1h13.1c-1.1,2-8,13.9-13.6,23.2
		c-7.4,12.8-16,25.8-21.8,30.4l-6.9-7.2C393.5,271.7,396.7,268.2,398.3,264.9 M306.5,227.5c-0.3,0-0.6,0-1,0
		c-3.5,0-8.6,0.8-12.6,7.3l-0.6,1.1l1.4-8.1h-12.4l-7.5,36.5h13l3.2-15.5c1.4-6.6,5.2-10,11.4-10c0.5,0,2.2,0,2.7,0.1L306.5,227.5z
		 M153.3,218.4l-9.9,46h13l9.9-46H153.3L153.3,218.4z M197.4,218.4h-15.1l-19.9,20.8l10,25.1h15.6l-11.6-25.1L197.4,218.4z
		 M260.2,237.3c-3.4,17-6.6,19.8-11,20c-0.9,0-1.7-0.2-2.4-0.6c-0.4-0.3-0.7-0.6-1-1c-0.3-0.4-0.5-0.8-0.7-1.3
		c-0.9-2.6-0.5-6.2,0-8.3c0.2-0.9,0.6-2.5,1.2-4.2c0.9-2,2-3.9,3.6-5.3l0.1-0.1c0,0,0.1-0.1,0.1-0.1c0.1-0.1,0.3-0.2,0.4-0.3
		c0.4-0.3,0.8-0.6,1.3-0.8c0.5-0.3,1.1-0.5,1.6-0.6c2-0.5,4,0.2,5.3,0.9c0.8,0.4,1.3,0.9,1.5,1.1
		C260.4,236.6,260.3,236.7,260.2,237.3 M262.3,227.9l-1.2,4c-0.5-0.7-1.6-2-2.5-2.7c-1.9-1.4-4.4-2.2-6.6-2.2c-0.2,0-0.4,0-0.6,0
		c-4.6,0.3-8.2,2-11.9,5.3c-5.6,5-7.1,12.4-7.3,13.6c-0.8,3.8-1.6,10.8,1.8,15.3c1,1.4,2.4,2.4,4.1,3.1c1.5,0.6,3.1,0.9,5.1,1
		c7.2,0.1,10.6-3.8,12.3-5.8l-0.9,5h12l7.5-36.5L262.3,227.9L262.3,227.9z"/>
</g>
</svg>
