<?xml version="1.0" encoding="utf-8"?>
<!-- Generator: Adobe Illustrator 21.0.0, SVG Export Plug-In . SVG Version: 6.00 Build 0)  -->
<svg version="1.1" id="Layer_1" xmlns="http://www.w3.org/2000/svg" xmlns:xlink="http://www.w3.org/1999/xlink" x="0px" y="0px"
	 viewBox="0 0 434 538.2" style="enable-background:new 0 0 434 538.2;" xml:space="preserve">
<style type="text/css">
	.st0{fill:#1668AC;}
</style>
<path class="st0" d="M217,123.5L0,0v538.2l217-123.5l217,123.5V0L217,123.5z M113.9,269.1l107.9-61.5l107.9,61.5l-107.9,61.5
	C221.8,330.6,113.9,269.1,113.9,269.1z M75.3,118.2l77.2,44l-77.2,44C75.3,206.3,75.3,118.2,75.3,118.2z M75.3,332l71.4,40.7
	l-71.4,40.7C75.3,413.4,75.3,332,75.3,332z M363.2,413.4l-71.4-40.7l71.4-40.7V413.4z M286,162.2l77.2-44v88L286,162.2z"/>
</svg>
