<svg xmlns="http://www.w3.org/2000/svg" width="58.982" height="58" viewBox="0 0 58.982 58">
  <g id="_001-server" data-name="001-server" transform="translate(0 -0.5)">
    <path id="Path_655" data-name="Path 655" d="M10.424,6.5a4.424,4.424,0,1,0,4.424,4.424A4.429,4.429,0,0,0,10.424,6.5Zm0,6.881a2.458,2.458,0,1,1,2.458-2.458A2.46,2.46,0,0,1,10.424,13.381Z" transform="translate(-0.102 -0.102)" fill="#ed1f30"/>
    <circle id="Ellipse_96" data-name="Ellipse 96" cx="1" cy="1" r="1" transform="translate(47.983 8.5)" fill="#ed1f30"/>
    <circle id="Ellipse_97" data-name="Ellipse 97" cx="1" cy="1" r="1" transform="translate(43.983 8.5)" fill="#ed1f30"/>
    <circle id="Ellipse_98" data-name="Ellipse 98" cx="1" cy="1" r="1" transform="translate(49.983 11.5)" fill="#ed1f30"/>
    <circle id="Ellipse_99" data-name="Ellipse 99" cx="1" cy="1" r="1" transform="translate(45.983 11.5)" fill="#ed1f30"/>
    <circle id="Ellipse_100" data-name="Ellipse 100" cx="1" cy="1" r="1" transform="translate(39.983 8.5)" fill="#ed1f30"/>
    <circle id="Ellipse_101" data-name="Ellipse 101" cx="1" cy="1" r="1" transform="translate(41.983 11.5)" fill="#ed1f30"/>
    <circle id="Ellipse_102" data-name="Ellipse 102" cx="1" cy="1" r="1" transform="translate(35.983 8.5)" fill="#ed1f30"/>
    <circle id="Ellipse_103" data-name="Ellipse 103" cx="1" cy="1" r="1" transform="translate(37.983 11.5)" fill="#ed1f30"/>
    <circle id="Ellipse_104" data-name="Ellipse 104" cx="1" cy="1" r="1" transform="translate(31.983 8.5)" fill="#ed1f30"/>
    <circle id="Ellipse_105" data-name="Ellipse 105" cx="1" cy="1" r="1" transform="translate(33.983 11.5)" fill="#ed1f30"/>
    <path id="Path_656" data-name="Path 656" d="M58.983,16.614V5.03A4.535,4.535,0,0,0,54.453.5H4.53A4.535,4.535,0,0,0,0,5.03V16.613A4.5,4.5,0,0,0,1.747,20.16,4.508,4.508,0,0,0,0,23.708V35.291a4.5,4.5,0,0,0,1.747,3.547A4.508,4.508,0,0,0,0,42.386V53.969A4.535,4.535,0,0,0,4.53,58.5H54.452a4.535,4.535,0,0,0,4.53-4.53V42.386a4.5,4.5,0,0,0-1.747-3.547,4.5,4.5,0,0,0,1.748-3.547V23.708a4.5,4.5,0,0,0-1.747-3.547A4.5,4.5,0,0,0,58.983,16.614ZM57.017,42.386V53.969a2.567,2.567,0,0,1-2.564,2.564H4.53A2.565,2.565,0,0,1,1.966,53.97V42.386A2.567,2.567,0,0,1,4.53,39.822H54.452A2.567,2.567,0,0,1,57.017,42.386Zm0-18.678V35.291a2.567,2.567,0,0,1-2.564,2.564H4.53a2.565,2.565,0,0,1-2.564-2.563V23.708A2.567,2.567,0,0,1,4.53,21.144H54.452A2.567,2.567,0,0,1,57.017,23.708ZM4.53,19.178a2.567,2.567,0,0,1-2.564-2.564V5.03A2.567,2.567,0,0,1,4.53,2.466H54.452A2.567,2.567,0,0,1,57.017,5.03V16.613a2.567,2.567,0,0,1-2.564,2.564H4.53Z" fill="#ed1f30"/>
    <path id="Path_657" data-name="Path 657" d="M10.424,34.347A4.424,4.424,0,1,0,6,29.924,4.429,4.429,0,0,0,10.424,34.347Zm0-6.881a2.458,2.458,0,1,1-2.458,2.458A2.46,2.46,0,0,1,10.424,27.466Z" transform="translate(-0.102 -0.424)" fill="#ed1f30"/>
    <circle id="Ellipse_106" data-name="Ellipse 106" cx="1" cy="1" r="1" transform="translate(47.983 27.5)" fill="#ed1f30"/>
    <circle id="Ellipse_107" data-name="Ellipse 107" cx="1" cy="1" r="1" transform="translate(43.983 27.5)" fill="#ed1f30"/>
    <circle id="Ellipse_108" data-name="Ellipse 108" cx="1" cy="1" r="1" transform="translate(49.983 29.5)" fill="#ed1f30"/>
    <circle id="Ellipse_109" data-name="Ellipse 109" cx="1" cy="1" r="1" transform="translate(45.983 29.5)" fill="#ed1f30"/>
    <circle id="Ellipse_110" data-name="Ellipse 110" cx="1" cy="1" r="1" transform="translate(39.983 27.5)" fill="#ed1f30"/>
    <circle id="Ellipse_111" data-name="Ellipse 111" cx="1" cy="1" r="1" transform="translate(41.983 29.5)" fill="#ed1f30"/>
    <circle id="Ellipse_112" data-name="Ellipse 112" cx="1" cy="1" r="1" transform="translate(35.983 27.5)" fill="#ed1f30"/>
    <circle id="Ellipse_113" data-name="Ellipse 113" cx="1" cy="1" r="1" transform="translate(37.983 29.5)" fill="#ed1f30"/>
    <circle id="Ellipse_114" data-name="Ellipse 114" cx="1" cy="1" r="1" transform="translate(31.983 27.5)" fill="#ed1f30"/>
    <circle id="Ellipse_115" data-name="Ellipse 115" cx="1" cy="1" r="1" transform="translate(33.983 29.5)" fill="#ed1f30"/>
    <path id="Path_658" data-name="Path 658" d="M10.424,53.347A4.424,4.424,0,1,0,6,48.924,4.429,4.429,0,0,0,10.424,53.347Zm0-6.881a2.458,2.458,0,1,1-2.458,2.458A2.46,2.46,0,0,1,10.424,46.466Z" transform="translate(-0.102 -0.746)" fill="#ed1f30"/>
    <circle id="Ellipse_116" data-name="Ellipse 116" cx="1" cy="1" r="1" transform="translate(47.983 45.5)" fill="#ed1f30"/>
    <circle id="Ellipse_117" data-name="Ellipse 117" cx="1" cy="1" r="1" transform="translate(43.983 45.5)" fill="#ed1f30"/>
    <circle id="Ellipse_118" data-name="Ellipse 118" cx="1" cy="1" r="1" transform="translate(49.983 48.5)" fill="#ed1f30"/>
    <circle id="Ellipse_119" data-name="Ellipse 119" cx="1" cy="1" r="1" transform="translate(45.983 48.5)" fill="#ed1f30"/>
    <circle id="Ellipse_120" data-name="Ellipse 120" cx="1" cy="1" r="1" transform="translate(39.983 45.5)" fill="#ed1f30"/>
    <circle id="Ellipse_121" data-name="Ellipse 121" cx="1" cy="1" r="1" transform="translate(41.983 48.5)" fill="#ed1f30"/>
    <circle id="Ellipse_122" data-name="Ellipse 122" cx="1" cy="1" r="1" transform="translate(35.983 45.5)" fill="#ed1f30"/>
    <circle id="Ellipse_123" data-name="Ellipse 123" cx="1" cy="1" r="1" transform="translate(37.983 48.5)" fill="#ed1f30"/>
    <circle id="Ellipse_124" data-name="Ellipse 124" cx="1" cy="1" r="1" transform="translate(31.983 45.5)" fill="#ed1f30"/>
    <circle id="Ellipse_125" data-name="Ellipse 125" cx="1" cy="1" r="1" transform="translate(33.983 48.5)" fill="#ed1f30"/>
  </g>
</svg>
