<?xml version="1.0" encoding="utf-8"?>
<!-- Generator: Adobe Illustrator 21.0.0, SVG Export Plug-In . SVG Version: 6.00 Build 0)  -->
<svg version="1.1" id="Layer_1" xmlns="http://www.w3.org/2000/svg" xmlns:xlink="http://www.w3.org/1999/xlink" x="0px" y="0px"
	 viewBox="0 0 437.1 437.1" style="enable-background:new 0 0 437.1 437.1;" xml:space="preserve">
<style type="text/css">
	.st0{fill:#1668AC;}
</style>
<title>E Icon 1c Black Rounded Rectangle</title>
<desc>Created with Sketch.</desc>
<g id="Final-Asset-Sheet">
	<g id="Ember-Logos" transform="translate(-3320.000000, -221.000000)">
		<g id="E-Icon-1c-Black-Rounded-Rectangle" transform="translate(3320.100178, 221.928106)">
			<path class="st0" d="M384.9,436.1H52c-28.7,0-52.1-23.4-52.1-52.1V51.2C-0.1,22.5,23.3-0.9,52-0.9h332.8
				c28.7,0,52.1,23.4,52.1,52.1V384C437,412.8,413.6,436.1,384.9,436.1z M52,24.1c-15,0-27.1,12.2-27.1,27.1V384
				c0,15,12.2,27.1,27.1,27.1h332.8c15,0,27.1-12.2,27.1-27.1V51.2c0-15-12.2-27.1-27.1-27.1H52z M211.9,354.5
				c-19.6,0-40.4-4-58.6-15.8c-30.2-19.6-40.3-43-44.7-64.6c-12.9-1.2-35.5-4.2-52.5-10.8c-11.7-4.6-15.9-12.5-17.3-18.3
				c-4-16.1,8.6-32.7,12.1-37c1.9-2.5,6.9-8.2,15.5-9.5c5.3-0.8,13.6-0.2,22.9,7.6c4.4,3.7,12.6,4.6,19.4,4.4
				c2.7-17.7,7.1-37.9,16.5-59.2c30.4-68.2,78.5-76.5,97.8-76.8c34.8-0.7,57.7,10.4,76.5,37.1c0.6,0.8,1,1.6,1.4,2.5
				c10.3,25.6,10.1,50.6-0.6,74.1c-20.8,45.5-75.6,72.5-99.1,82.3c3.3,3,10.4,4.6,19.6,4.3c0.1,0,0.2,0,0.3,0
				c43.5,0,90.7-34.8,109-49.8c9.6-7.9,23.8-7,32.4,1.9l14.3,14.8c8.6,9,8.9,23.3,0.6,32.5c-14,15.6-44.3,44.6-89.7,63.6
				C283.9,339.5,250,354.5,211.9,354.5z M131.8,261.2c3.2,22.3,10.4,40.4,35.1,56.5c43,28,109.7-2.4,110.4-2.7
				c0.1-0.1,0.3-0.1,0.4-0.2c40.2-16.8,67.3-42.3,80.2-56.6L345,244.8c-20.9,17-73,54.7-123.9,54.8c-18,0.4-31.3-4.1-39.5-13.5
				c-9.7-11-7.9-24-7.7-25.4c0.7-4.6,3.9-8.4,8.3-9.8c0.7-0.2,73.5-25.8,95.2-73.3c7.7-16.9,7.9-34.2,0.7-53
				c-13.7-18.9-28.7-25.8-54.7-25.3c-14.5,0.3-50.8,6.9-75.4,62c-9.9,22.3-13.6,43.8-15.9,61.9c-0.7,5.3-4.7,9.6-9.9,10.7
				c-3.2,0.6-31.4,5.8-48.9-8.8c-1.2-1-2.1-1.6-2.7-1.8c-0.1,0.1-0.2,0.2-0.3,0.3c-4.5,5.4-7.8,12.8-7.3,15c0.2,0.2,0.7,0.6,2.2,1.2
				c20.7,8.1,54.4,9.9,54.7,9.9C126.3,250.2,131.3,255.1,131.8,261.2z M71.4,222.3L71.4,222.3L71.4,222.3z M71.4,222.3L71.4,222.3
				L71.4,222.3z M71.5,222.3L71.5,222.3L71.5,222.3z M183,232.3c-3.4,0-5.6-0.5-6.9-0.9c-5.4-1.6-9-6.7-8.9-12.3
				c1.3-51.5,25.7-84.3,49.2-94c12.3-5,24.4-3.5,32.4,4.2c8.7,8.4,12.9,20.4,11.8,33.9c-1.6,19-13.7,38-32.4,50.9
				C206.1,229.3,191.2,232.3,183,232.3z M230.3,147.2c-0.9,0-2.4,0.2-4.4,1.1c-11.4,4.7-27.9,23.2-32.5,56.6
				c5-1.9,11.9-5.3,20.6-11.3c12.6-8.7,20.7-20.7,21.7-32.3c0.5-5.8-1-10.7-4.2-13.8C231.4,147.4,231,147.2,230.3,147.2z"/>
		</g>
	</g>
</g>
</svg>
