<?xml version="1.0" standalone="no"?>
<!DOCTYPE svg PUBLIC "-//W3C//DTD SVG 20010904//EN"
 "http://www.w3.org/TR/2001/REC-SVG-20010904/DTD/svg10.dtd">
<svg version="1.0" xmlns="http://www.w3.org/2000/svg"
 width="86.000000pt" height="96.000000pt" viewBox="0 0 86.000000 96.000000"
 preserveAspectRatio="xMidYMid meet">
<metadata>
Created by potrace 1.16, written by Peter Selinger 2001-2019
</metadata>
<g transform="translate(0.000000,96.000000) scale(0.100000,-0.100000)"
fill="#000000" stroke="none">
<path d="M163 832 c-9 -6 -13 -54 -15 -162 l-3 -155 -55 -5 -55 -5 -3 -78 c-4
-96 4 -107 69 -107 l48 0 3 -107 3 -108 267 -3 c260 -2 267 -2 273 18 4 14 15
20 34 20 36 0 61 41 43 70 -9 14 -9 26 -1 43 14 31 -3 67 -32 67 -11 0 -34 13
-50 29 -28 29 -29 32 -29 135 0 96 7 125 25 96 9 -15 33 -12 59 7 l23 18 -24
19 c-20 15 -29 17 -49 7 -33 -15 -34 -14 -34 9 0 13 7 20 19 20 11 0 23 5 26
10 3 6 19 10 36 10 16 0 29 5 29 10 0 6 -11 10 -23 10 -13 0 -38 7 -55 16 -28
14 -32 20 -32 58 0 23 -5 47 -12 54 -14 14 -464 17 -485 4z m477 -97 c0 -39
-24 -49 -33 -15 -5 19 -12 21 -94 18 l-88 -3 -3 -92 -3 -93 91 0 c88 0 91 1
100 26 19 48 30 13 30 -92 0 -92 -3 -108 -22 -134 -13 -18 -31 -30 -45 -30
-12 0 -27 -9 -33 -20 -6 -12 -21 -20 -35 -20 -14 0 -25 -4 -25 -10 0 -5 11
-10 24 -10 25 0 51 -22 39 -33 -3 -4 -91 -7 -195 -7 l-188 0 0 49 c0 47 2 50
28 53 23 3 28 8 32 43 4 32 10 41 27 43 17 3 21 0 17 -12 -9 -22 9 -20 31 4
17 19 17 21 0 40 -17 19 -41 18 -30 -1 4 -5 -5 -9 -19 -9 -24 0 -26 4 -26 39
0 36 -3 40 -27 43 l-28 3 -3 114 c-1 63 0 121 2 128 4 10 56 13 241 13 l235 0
0 -35z m-52 -92 l-3 -78 -72 -3 -73 -3 0 81 0 80 75 0 76 0 -3 -77z m-383
-223 l0 -75 -77 -3 -78 -3 0 74 c0 40 3 77 7 81 4 4 39 5 78 4 l70 -3 0 -75z
m479 -95 c12 -18 23 -24 35 -20 28 9 47 -20 31 -49 -9 -18 -9 -29 -1 -44 16
-30 3 -52 -29 -52 -20 0 -31 -6 -35 -20 -4 -13 -15 -20 -30 -20 -15 0 -26 7
-30 20 -4 14 -15 20 -35 20 -32 0 -45 22 -30 50 7 13 6 27 -1 44 -14 31 4 60
31 51 11 -4 23 3 34 20 21 32 39 32 60 0z m-149 -155 c12 -23 22 -30 45 -30
17 0 30 -5 30 -10 0 -7 -76 -9 -222 -8 l-223 3 -3 23 c-8 51 -5 52 182 52
l175 0 16 -30z"/>
<path d="M207 733 c-4 -3 -7 -46 -7 -95 l0 -88 89 0 c72 0 90 3 95 16 11 28 6
150 -6 162 -13 13 -159 17 -171 5z m163 -93 l0 -81 -77 3 -78 3 -3 78 -3 77
81 0 80 0 0 -80z"/>
</g>
</svg>
