<?xml version="1.0" standalone="no"?>
<!DOCTYPE svg PUBLIC "-//W3C//DTD SVG 20010904//EN"
 "http://www.w3.org/TR/2001/REC-SVG-20010904/DTD/svg10.dtd">
<svg version="1.0" xmlns="http://www.w3.org/2000/svg"
 width="97.000000pt" height="96.000000pt" viewBox="0 0 97.000000 96.000000"
 preserveAspectRatio="xMidYMid meet">
<metadata>
Created by potrace 1.16, written by Peter Selinger 2001-2019
</metadata>
<g transform="translate(0.000000,96.000000) scale(0.100000,-0.100000)"
fill="#000000" stroke="none">
<path d="M40 565 l0 -355 45 0 45 0 0 -80 0 -80 390 0 390 0 0 65 c0 37 -4 65
-10 65 -5 0 -10 -25 -10 -55 l0 -55 -372 2 -373 3 0 285 0 285 373 3 372 2 0
-220 c0 -140 4 -220 10 -220 6 0 10 97 10 270 l0 270 -40 0 -40 0 0 85 0 85
-330 0 c-213 0 -330 -4 -330 -10 0 -6 114 -10 321 -10 l320 0 -3 -32 -3 -33
-370 0 -370 0 -3 33 c-3 31 -2 32 32 32 20 0 36 5 36 10 0 6 -20 10 -45 10
l-45 0 0 -355z m768 218 l3 -33 -340 0 -341 0 -2 -257 -3 -258 -30 0 -30 0 -3
280 c-1 154 0 285 3 292 3 11 81 13 372 11 l368 -3 3 -32z m82 -83 l0 -30
-372 2 -373 3 -3 28 -3 27 375 0 376 0 0 -30z"/>
<path d="M632 557 c-18 -18 -32 -40 -32 -50 0 -18 -57 -87 -72 -87 -18 0 -47
45 -48 73 0 42 -49 87 -94 87 -38 0 -45 -10 -21 -30 8 -7 15 -19 15 -27 0 -21
-29 -27 -49 -9 -26 24 -31 20 -31 -24 0 -53 34 -90 83 -90 19 0 40 -7 47 -16
12 -13 2 -26 -63 -92 -42 -43 -77 -84 -77 -93 0 -16 50 -69 65 -69 5 0 45 35
87 77 89 88 108 90 119 13 7 -54 37 -80 89 -80 53 0 95 48 86 99 -7 46 -33 70
-82 78 -40 6 -74 28 -74 48 0 16 63 75 80 75 8 0 32 15 53 33 l38 32 -43 43
-44 42 -32 -33z m65 -279 c43 -40 21 -109 -39 -124 -22 -5 -33 0 -58 24 -36
37 -38 65 -5 97 30 31 71 32 102 3z"/>
</g>
</svg>
