<?xml version="1.0" standalone="no"?>
<!DOCTYPE svg PUBLIC "-//W3C//DTD SVG 20010904//EN"
 "http://www.w3.org/TR/2001/REC-SVG-20010904/DTD/svg10.dtd">
<svg version="1.0" xmlns="http://www.w3.org/2000/svg"
 width="88.000000pt" height="86.000000pt" viewBox="0 0 88.000000 86.000000"
 preserveAspectRatio="xMidYMid meet">
<metadata>
Created by potrace 1.16, written by Peter Selinger 2001-2019
</metadata>
<g transform="translate(0.000000,86.000000) scale(0.100000,-0.100000)"
fill="#000000" stroke="none">
<path d="M86 784 c-14 -13 -16 -60 -16 -358 0 -253 3 -345 12 -354 9 -9 70
-12 215 -12 l203 0 10 25 c9 24 11 24 152 27 l143 3 3 279 c2 197 -1 283 -9
292 -9 11 -45 14 -150 14 l-139 0 0 44 c0 31 -5 46 -16 50 -9 3 -100 6 -204 6
-158 0 -191 -3 -204 -16z m66 -26 c3 -22 6 -23 140 -26 l137 -3 7 26 c4 18 13
25 29 25 24 0 35 -17 35 -56 l0 -24 -178 0 c-125 0 -182 -4 -190 -12 -18 -18
-17 -551 1 -567 8 -6 80 -12 188 -13 248 -4 228 -22 -28 -26 l-203 -2 0 343
c0 189 3 347 7 350 3 4 17 7 29 7 16 0 24 -7 26 -22z m638 -353 l0 -275 -325
0 -325 0 0 268 c0 148 3 272 7 275 3 4 150 7 325 7 l318 0 0 -275z"/>
<path d="M434 595 c-7 -28 -14 -31 -32 -13 -10 10 -21 3 -54 -30 -33 -33 -40
-44 -30 -54 18 -18 15 -25 -13 -32 -23 -6 -25 -11 -25 -60 0 -49 2 -54 25 -60
22 -6 24 -9 14 -27 -9 -18 -6 -27 27 -60 31 -32 40 -36 57 -27 19 10 36 -2 37
-24 0 -5 24 -8 54 -8 46 0 56 3 61 20 7 23 16 25 33 8 10 -10 21 -3 54 29 36
37 40 44 28 58 -12 14 -12 18 1 26 8 5 17 9 22 9 4 0 7 25 7 55 0 30 -3 55 -7
55 -23 1 -35 18 -25 37 9 17 5 26 -27 57 -33 33 -42 36 -60 27 -18 -10 -21 -8
-27 14 -6 23 -11 25 -60 25 -49 0 -54 -2 -60 -25z m103 -22 c10 -26 24 -33 45
-20 15 10 22 7 44 -14 21 -21 24 -30 16 -46 -12 -22 -5 -36 21 -46 12 -4 17
-17 17 -42 0 -19 -4 -35 -9 -35 -5 0 -17 -7 -25 -16 -13 -12 -14 -20 -5 -36 9
-17 7 -25 -14 -45 -20 -21 -28 -23 -45 -14 -16 9 -24 8 -36 -5 -9 -8 -16 -20
-16 -25 0 -5 -16 -9 -35 -9 -25 0 -38 5 -42 18 -10 25 -24 32 -46 20 -16 -8
-25 -5 -46 16 -21 22 -24 29 -14 44 13 21 6 35 -19 45 -28 10 -25 77 3 84 17
5 20 12 16 37 -7 45 24 76 68 69 27 -4 33 -2 38 16 7 28 74 31 84 4z"/>
<path d="M414 486 c-29 -29 -34 -41 -34 -80 0 -119 161 -160 216 -54 40 78
-14 168 -102 168 -39 0 -51 -5 -80 -34z m141 -10 c50 -50 40 -125 -21 -153
-62 -30 -134 15 -134 82 0 80 100 126 155 71z"/>
</g>
</svg>
