<svg id="SvgjsSvg1001" width="288" height="288" xmlns="http://www.w3.org/2000/svg" version="1.1" xmlns:xlink="http://www.w3.org/1999/xlink" xmlns:svgjs="http://svgjs.com/svgjs"><defs id="SvgjsDefs1002"></defs><g id="SvgjsG1008" transform="matrix(0.9167,0,0,0.9167,11.58627311725617,11.449962885284435)"><svg xmlns="http://www.w3.org/2000/svg" width="288" height="288" version="1.0" viewBox="0 0 82 88"><g transform="matrix(.1 0 0 -.1 0 88)" fill="#666eff" class="color000 svgShape"><path d="M166 809 c-25 -20 -26 -24 -26 -120 0 -90 -2 -99 -19 -99 -34 0 -42-24 -39 -116 3 -85 4 -88 28 -94 21 -5 26 -13 30 -50 l5 -45 70 -1 70 -1 -60
6 -60 6 -3 43 c-3 45 10 56 28 22 9 -17 21 -20 70 -20 l60 0 0 -50 c0 -27 5
-50 10 -50 6 0 10 23 10 50 l0 50 55 0 55 0 0 -50 c0 -27 5 -50 10 -50 6 0 10
23 10 50 l0 50 60 0 c49 0 61 4 70 19 7 15 23 21 58 23 l47 3 3 88 c3 93 -5
117 -39 117 -17 0 -19 9 -19 99 0 96 -1 100 -26 120 -25 20 -39 21 -229 21
-190 0 -204 -1 -229 -21z m446 -16 c15 -13 18 -32 18 -110 0 -76 -3 -93 -15
-93 -12 0 -15 14 -15 64 0 49 -4 65 -16 70 -20 8 -358 8 -378 0 -12 -5 -16
-21 -16 -70 0 -50 -3 -64 -15 -64 -12 0 -15 17 -15 92 0 134 -11 128 233 128
172 0 203 -2 219 -17z m-32 -258 l0 -175 -185 0 -185 0 0 175 0 175 185 0 185
0 0 -175z m-390 -55 l0 -90 -40 0 c-49 0 -60 18 -60 94 0 79 5 86 56 86 l44 0
0 -90z m498 78 c7 -7 12 -39 12 -74 0 -73 -15 -94 -66 -94 l-34 0 0 90 0 90
38 0 c21 0 43 -5 50 -12z" fill="#666eff" class="color000 svgShape"></path><path d="M262 664c-21-14-22-23-22-129 0-149-5-145 155-145 160 0 155-4 155 145 0 146 1 145-155 145-84 0-116-4-133-16zm252-10c13-5 16-25 16-120 0-137 3-134-139-134-139 0-144 6-139 141 2 75 7 102 18 109 16 11 219 14 244 4zM102 233c-21-8-42-60-42-103l0-40 335 0 335 0 0 34c0 46-18 94-40 106-10 6-55 10-99 10l-81 0 0-35c0-19-2-35-5-35-2 0-29 12-58 26l-53 26-52-26c-28-14-54-26-57-26-3 0-5 16-5 35l0 35-82-1c-46 0-89-3-96-6zm156-50c2-24 8-43 13-43 5 0 35 13 67 29l57 29 55-29c75-39 80-38 80 17l0 46 71-4c82-4 109-25 109-84l0-34-315 0-315 0 0 31c0 66 32 89 120 86l55-2 3-42z" fill="#666eff" class="color000 svgShape"></path></g></svg></g></svg>