<?xml version="1.0" standalone="no"?>
<!DOCTYPE svg PUBLIC "-//W3C//DTD SVG 20010904//EN"
 "http://www.w3.org/TR/2001/REC-SVG-20010904/DTD/svg10.dtd">
<svg version="1.0" xmlns="http://www.w3.org/2000/svg"
 width="98.000000pt" height="93.000000pt" viewBox="0 0 98.000000 93.000000"
 preserveAspectRatio="xMidYMid meet">
<metadata>
Created by potrace 1.16, written by Peter Selinger 2001-2019
</metadata>
<g transform="translate(0.000000,93.000000) scale(0.100000,-0.100000)"
fill="#000000" stroke="none">
<path d="M733 869 c-34 -10 -82 -60 -84 -87 -1 -9 -3 -32 -5 -50 -1 -19 -10
-42 -20 -53 -17 -19 -19 -19 -71 33 -29 29 -56 60 -59 70 -3 9 -30 31 -60 49
-50 28 -57 30 -71 17 -13 -14 -12 -21 11 -66 15 -29 38 -58 54 -66 15 -8 49
-37 75 -64 l49 -49 -26 -20 c-16 -13 -41 -21 -68 -21 -51 -1 -86 -25 -112 -76
-18 -36 -16 -106 2 -106 5 0 25 17 46 39 25 26 44 37 56 34 34 -9 32 -35 -5
-73 -38 -39 -43 -55 -19 -64 77 -29 164 43 164 136 0 22 7 42 20 53 25 22 39
12 22 -16 -7 -11 -10 -29 -7 -40 6 -18 11 -20 42 -23 7 -1 32 -20 55 -42 73
-70 104 -79 143 -39 37 36 31 60 -30 124 -31 33 -55 67 -55 79 0 29 -27 43
-57 29 -30 -14 -41 -2 -19 22 11 12 35 20 67 23 63 6 100 33 118 85 15 43 9
93 -12 93 -7 0 -28 -16 -47 -35 -39 -40 -55 -43 -71 -14 -9 19 -6 27 31 64 23
23 38 45 33 47 -20 12 -61 15 -90 7z m28 -53 c-28 -29 -32 -39 -26 -63 13 -54
63 -59 112 -11 37 36 44 23 19 -37 -17 -40 -60 -65 -115 -65 -35 0 -48 -7
-106 -61 -60 -57 -83 -94 -76 -127 10 -51 -53 -122 -108 -122 -25 0 -25 0 8
34 29 30 33 39 27 69 -5 29 -12 36 -38 41 -27 5 -37 1 -65 -26 -39 -38 -49
-33 -33 16 16 51 53 76 108 76 44 0 49 3 125 79 58 58 78 85 77 103 -5 51 1
71 29 99 21 20 39 29 62 29 l33 0 -33 -34z"/>
<path d="M153 286 c-5 -9 -28 -16 -63 -18 l-55 -3 -3 -112 -3 -113 61 0 c47 0
60 -3 60 -15 0 -12 14 -15 70 -15 49 0 70 4 70 13 0 9 38 11 162 9 l163 -2
134 77 c74 43 139 86 145 95 7 11 7 26 0 45 -15 44 -56 42 -142 -8 -62 -36
-76 -40 -95 -31 -12 7 -74 26 -137 43 -111 29 -140 31 -207 13 -19 -5 -23 -2
-23 15 0 19 -5 21 -65 21 -45 0 -66 -4 -72 -14z m117 -137 l0 -120 -47 3 -48
3 -3 118 -3 117 51 0 50 0 0 -121z m249 76 c136 -37 162 -55 127 -85 -12 -9
-35 -6 -111 15 -90 24 -122 26 -99 6 18 -16 183 -53 207 -47 15 3 29 17 35 33
12 37 157 121 180 106 41 -25 30 -37 -125 -127 l-131 -76 -131 0 c-78 0 -140
5 -156 12 -25 11 -26 14 -23 92 l3 80 45 12 c25 7 47 12 50 13 3 0 61 -15 129
-34z m-371 -73 l3 -92 -46 0 -45 0 0 96 0 95 43 -3 42 -3 3 -93z"/>
</g>
</svg>
