<?xml version="1.0" standalone="no"?>
<!DOCTYPE svg PUBLIC "-//W3C//DTD SVG 20010904//EN"
 "http://www.w3.org/TR/2001/REC-SVG-20010904/DTD/svg10.dtd">
<svg version="1.0" xmlns="http://www.w3.org/2000/svg"
 width="99.000000pt" height="98.000000pt" viewBox="0 0 99.000000 98.000000"
 preserveAspectRatio="xMidYMid meet">
<metadata>
Created by potrace 1.16, written by Peter Selinger 2001-2019
</metadata>
<g transform="translate(0.000000,98.000000) scale(0.100000,-0.100000)"
fill="#000000" stroke="none">
<path d="M400 949 c-136 -23 -265 -119 -325 -243 -90 -185 -58 -378 88 -532
l66 -69 44 43 45 44 31 -16 c29 -15 31 -20 31 -71 l0 -55 100 0 100 0 0 59 c0
57 1 59 32 70 30 11 34 9 75 -31 l43 -42 72 72 72 72 -42 43 c-40 41 -42 45
-31 75 11 31 13 32 70 32 l59 0 0 100 0 100 -55 0 c-51 0 -56 2 -71 31 l-16
31 44 45 43 44 -69 66 c-79 75 -160 117 -256 132 -73 12 -74 12 -150 0z m245
-52 c85 -40 129 -75 114 -93 -9 -11 -16 -10 -43 10 -81 61 -113 71 -236 71
-110 0 -118 -1 -175 -32 -77 -40 -138 -101 -178 -178 -31 -57 -32 -65 -32
-175 0 -123 10 -155 71 -236 20 -27 21 -34 10 -43 -11 -10 -20 -5 -40 21 -101
133 -114 331 -31 473 52 87 147 164 245 197 84 28 216 21 295 -15z m-51 -47
c31 -10 74 -32 96 -47 l39 -28 -62 -63 -62 -62 29 -51 c58 -103 24 -214 -83
-269 -43 -22 -114 -15 -170 16 l-51 29 -62 -62 -63 -63 -32 48 c-47 71 -66
142 -61 226 16 242 255 404 482 326z m221 -80 c18 -20 18 -21 -19 -59 l-38
-39 17 -46 18 -46 58 0 59 0 0 -80 0 -80 -58 0 -59 0 -17 -42 -16 -42 40 -41
40 -41 -58 -57 -57 -57 -40 40 -40 40 -43 -16 -42 -17 0 -59 0 -58 -80 0 -80
0 0 59 0 58 -46 18 -46 17 -39 -38 -39 -38 -22 22 -23 22 75 75 75 75 49 -25
c85 -43 175 -29 242 39 68 67 82 157 39 242 l-25 49 72 72 c40 40 75 73 79 73
3 0 14 -9 24 -20z"/>
<path d="M470 654 c0 -81 -1 -87 -29 -115 -26 -25 -37 -29 -85 -29 -31 0 -56
-4 -56 -10 0 -5 25 -10 56 -10 45 0 62 -5 86 -25 37 -31 43 -31 74 0 28 28 26
60 -7 84 -16 11 -19 26 -19 102 0 53 -4 89 -10 89 -6 0 -10 -35 -10 -86z"/>
</g>
</svg>
