<?xml version="1.0" standalone="no"?>
<!DOCTYPE svg PUBLIC "-//W3C//DTD SVG 20010904//EN"
 "http://www.w3.org/TR/2001/REC-SVG-20010904/DTD/svg10.dtd">
<svg version="1.0" xmlns="http://www.w3.org/2000/svg"
 width="94.000000pt" height="95.000000pt" viewBox="0 0 94.000000 95.000000"
 preserveAspectRatio="xMidYMid meet">
<metadata>
Created by potrace 1.16, written by Peter Selinger 2001-2019
</metadata>
<g transform="translate(0.000000,95.000000) scale(0.100000,-0.100000)"
fill="#000000" stroke="none">
<path d="M138 841 c-66 -14 -68 -19 -68 -162 0 -144 2 -149 83 -163 31 -6 37
-11 37 -31 0 -22 5 -24 52 -27 75 -4 77 -28 2 -28 -58 0 -59 -1 -116 -57 l-58
-57 0 -123 0 -123 143 0 143 0 52 53 c46 47 52 57 52 95 0 31 4 42 15 42 9 0
15 -9 15 -24 0 -19 6 -25 27 -28 19 -2 29 -10 33 -28 6 -25 6 -25 135 -28 96
-2 130 1 137 10 14 22 9 134 -6 147 -9 8 -55 11 -137 9 l-124 -3 -5 -40 c-3
-27 -10 -41 -23 -43 -12 -3 -17 3 -17 22 0 18 -6 25 -22 28 -21 3 -23 9 -26
76 -3 69 -4 72 -27 72 -23 0 -25 4 -25 50 l0 50 155 0 155 0 0 30 c0 25 4 30
25 30 20 0 25 5 25 25 0 19 5 25 21 25 50 0 59 15 59 103 0 51 -5 88 -12 95
-15 15 -221 16 -249 2 -16 -9 -19 -22 -19 -95 0 -92 8 -105 65 -105 22 0 25
-3 19 -25 -5 -22 -3 -25 20 -25 21 0 26 -5 26 -25 l0 -25 -155 0 -155 0 0 -55
0 -55 -34 0 c-28 0 -35 4 -38 23 -3 19 -10 22 -55 25 -64 4 -74 27 -15 38 80
14 82 18 82 164 0 123 -1 130 -22 144 -28 18 -121 27 -170 17z m690 -68 l3
-53 -120 0 -121 0 0 48 c0 27 3 52 7 56 4 3 57 5 117 4 l111 -3 3 -52z m-448
-408 l-44 -45 -108 0 c-59 0 -108 3 -108 7 0 4 17 24 37 45 l37 38 115 0 115
0 -44 -45z m60 -82 l0 -97 -37 -38 c-20 -21 -41 -38 -45 -38 -4 0 -8 43 -8 95
l0 95 36 40 c20 22 40 40 45 40 5 0 9 -44 9 -97z m-100 -88 l0 -105 -125 0
-125 0 0 105 0 105 125 0 125 0 0 -105z m468 47 c2 -31 -2 -60 -9 -68 -15 -18
-209 -20 -227 -2 -13 13 -17 110 -5 122 4 3 59 5 122 4 l116 -3 3 -53z"/>
<path d="M130 215 c0 -52 1 -55 25 -55 18 0 25 -5 25 -20 0 -18 7 -20 60 -20
l60 0 0 55 c0 52 -1 55 -25 55 -18 0 -25 5 -25 20 0 18 -7 20 -60 20 l-60 0 0
-55z"/>
<path d="M525 120 c-3 -5 -1 -19 5 -30 10 -19 20 -20 153 -20 148 0 167 5 167
42 0 16 -9 18 -68 18 -37 0 -73 -5 -79 -11 -8 -8 -17 -8 -31 0 -26 14 -139 15
-147 1z"/>
</g>
</svg>
