<?xml version="1.0" standalone="no"?>
<!DOCTYPE svg PUBLIC "-//W3C//DTD SVG 20010904//EN"
 "http://www.w3.org/TR/2001/REC-SVG-20010904/DTD/svg10.dtd">
<svg version="1.0" xmlns="http://www.w3.org/2000/svg"
 width="83.000000pt" height="83.000000pt" viewBox="0 0 83.000000 83.000000"
 preserveAspectRatio="xMidYMid meet">
<metadata>
Created by potrace 1.16, written by Peter Selinger 2001-2019
</metadata>
<g transform="translate(0.000000,83.000000) scale(0.100000,-0.100000)"
fill="#000000" stroke="none">
<path d="M65 765 c-25 -24 -25 -27 -25 -200 0 -173 0 -176 25 -200 21 -22 33
-25 99 -25 l74 0 -22 -57 c-21 -55 -24 -58 -59 -61 -39 -3 -44 -11 -27 -43 9
-17 22 -19 104 -19 51 0 96 -3 100 -7 4 -5 20 -8 34 -8 23 0 27 -4 25 -28 -2
-37 37 -58 70 -38 18 12 22 11 34 -5 7 -10 13 -21 13 -26 0 -4 14 -8 30 -8 17
0 30 4 30 8 0 5 6 16 13 26 12 16 16 17 34 5 33 -20 72 1 70 38 -2 25 1 28 26
26 37 -2 58 37 38 70 -12 18 -11 22 5 34 10 7 21 13 26 13 4 0 8 14 8 30 0 17
-4 30 -8 30 -5 0 -16 6 -26 13 -16 12 -17 16 -5 34 20 33 -1 72 -38 70 -25 -2
-28 1 -28 27 0 16 -6 31 -12 33 -10 4 -13 39 -13 133 0 122 -1 130 -22 144
-19 14 -64 16 -286 16 l-263 0 -24 -25z m556 -5 c17 -10 19 -22 19 -128 0
-110 -1 -118 -22 -131 -19 -12 -23 -11 -35 5 -7 10 -13 21 -13 26 0 4 -13 8
-30 8 -16 0 -30 -4 -30 -8 0 -5 -6 -16 -13 -26 -12 -16 -16 -17 -34 -5 -26 16
-73 -1 -73 -26 0 -13 -20 -15 -125 -15 l-125 0 0 80 0 80 60 0 c33 0 60 4 60
10 0 6 -27 10 -60 10 l-60 0 0 40 0 40 215 0 215 0 0 -75 c0 -45 4 -75 10 -75
7 0 10 30 8 83 l-3 82 -232 3 -233 2 0 -140 0 -140 -30 0 -30 0 0 139 c0 114
3 143 16 155 13 14 52 16 270 16 157 0 263 -4 275 -10z m-64 -260 c7 -25 48
-37 68 -20 21 18 45 6 38 -19 -7 -29 15 -54 45 -48 28 5 40 -16 22 -38 -17
-20 -5 -61 20 -68 11 -3 20 -10 20 -17 0 -7 -9 -14 -20 -17 -25 -7 -37 -48
-20 -68 18 -22 6 -43 -22 -38 -30 6 -52 -19 -45 -48 7 -25 -17 -37 -38 -19
-20 17 -61 5 -68 -20 -7 -26 -27 -26 -34 0 -7 25 -48 37 -68 20 -21 -18 -45
-6 -38 19 7 29 -15 54 -45 48 -28 -5 -40 16 -22 38 17 20 5 61 -20 68 -26 7
-26 37 0 37 24 0 38 44 20 65 -18 22 -6 43 22 38 30 -6 52 19 45 48 -7 25 17
37 38 19 21 -18 65 -4 65 20 0 26 30 26 37 0z m-228 -81 c-6 -12 -9 -30 -6
-40 5 -18 -2 -19 -113 -19 -129 0 -150 8 -150 56 l0 24 140 0 c140 0 141 0
129 -21z"/>
<path d="M482 347 c-50 -53 -13 -137 59 -137 47 0 79 34 79 81 0 71 -90 107
-138 56z"/>
</g>
</svg>
