<?xml version="1.0" standalone="no"?>
<!DOCTYPE svg PUBLIC "-//W3C//DTD SVG 20010904//EN"
 "http://www.w3.org/TR/2001/REC-SVG-20010904/DTD/svg10.dtd">
<svg version="1.0" xmlns="http://www.w3.org/2000/svg"
 width="98.000000pt" height="91.000000pt" viewBox="0 0 98.000000 91.000000"
 preserveAspectRatio="xMidYMid meet">
<metadata>
Created by potrace 1.16, written by Peter Selinger 2001-2019
</metadata>
<g transform="translate(0.000000,91.000000) scale(0.100000,-0.100000)"
fill="#000000" stroke="none">
<path d="M473 855 c-40 -17 -63 -61 -63 -119 0 -37 6 -51 30 -76 17 -17 30
-35 30 -40 0 -4 -16 -14 -35 -20 -44 -15 -65 -44 -65 -92 l0 -38 150 0 150 0
0 38 c0 48 -21 77 -65 92 -19 6 -35 16 -35 20 0 5 14 23 30 40 24 25 30 39 30
76 0 59 -23 102 -65 120 -42 17 -51 17 -92 -1z"/>
<path d="M683 420 c-4 -15 -9 -17 -22 -10 -24 13 -84 -46 -71 -70 7 -14 5 -19
-10 -23 -16 -4 -20 -14 -20 -50 0 -37 4 -47 21 -52 16 -5 18 -9 8 -21 -18 -22
46 -87 72 -74 14 8 19 6 24 -10 5 -16 15 -20 50 -20 35 0 44 4 48 21 5 17 9
19 24 10 14 -8 24 -4 50 21 26 25 30 34 22 50 -9 16 -7 20 10 25 17 4 21 13
21 48 0 35 -4 45 -20 50 -16 5 -18 10 -10 24 13 26 -52 90 -74 72 -12 -10 -16
-8 -21 8 -5 17 -15 21 -52 21 -36 0 -46 -4 -50 -20z m87 -20 c8 -15 17 -19 31
-15 30 10 60 -21 53 -52 -5 -19 -2 -25 15 -30 29 -7 29 -58 0 -74 -15 -7 -19
-17 -15 -32 7 -29 -20 -58 -50 -51 -16 4 -25 0 -34 -15 -15 -29 -66 -29 -73 0
-5 17 -11 20 -30 15 -31 -7 -62 23 -52 53 4 14 0 23 -15 31 -28 15 -28 66 1
73 17 5 20 11 16 29 -9 31 19 59 50 52 19 -5 25 -2 30 15 7 29 58 29 73 1z"/>
<path d="M669 331 c-41 -41 -40 -91 1 -133 27 -27 36 -30 72 -25 52 7 78 33
85 85 5 36 2 45 -25 72 -42 41 -92 42 -133 1z m131 -21 c42 -79 -58 -162 -120
-100 -42 42 -21 123 34 132 31 5 75 -11 86 -32z"/>
<path d="M130 250 l0 -160 125 0 125 0 0 160 0 160 -125 0 -125 0 0 -160z
m228 3 l3 -143 -106 0 -105 0 0 138 c0 76 3 142 7 146 4 4 50 5 103 4 l95 -3
3 -142z"/>
</g>
</svg>
