<?xml version="1.0" encoding="utf-8"?>
<!-- Generator: Adobe Illustrator 21.0.0, SVG Export Plug-In . SVG Version: 6.00 Build 0)  -->
<svg version="1.1" id="Layer_1" xmlns="http://www.w3.org/2000/svg" xmlns:xlink="http://www.w3.org/1999/xlink" x="0px" y="0px"
	 viewBox="0 0 408.8 460.7" style="enable-background:new 0 0 408.8 460.7;" xml:space="preserve">
<style type="text/css">
	.st0{fill:#1668AC;}
</style>
<g>
	<path class="st0" d="M204.4,460.7c-6.3,0-12.3-1.7-17.8-4.7l-56.3-33.4c-8.5-4.7-4.2-6.3-1.7-7.2c11.4-3.8,13.5-4.7,25.4-11.4
		c1.3-0.8,3-0.4,4.2,0.4l43.2,25.8c1.7,0.8,3.8,0.8,5.1,0l168.9-97.8c1.7-0.8,2.5-2.5,2.5-4.7v-195c0-2.1-0.8-3.8-2.5-4.7
		L206.5,30.7c-1.7-0.8-3.8-0.8-5.1,0L32.6,128c-1.7,0.8-2.5,3-2.5,4.7v195.1c0,1.7,0.8,3.8,2.5,4.7l46.1,26.7
		c25,12.7,40.6-2.1,40.6-16.9V149.6c0-2.5,2.1-5.1,5.1-5.1H146c2.5,0,5.1,2.1,5.1,5.1v192.6c0,33.4-18.2,52.9-49.9,52.9
		c-9.7,0-17.4,0-38.9-10.6l-44.4-25.4C6.8,352.8,0,340.9,0,328.2V133.1c0-12.7,6.8-24.5,17.8-30.9L186.6,4.4c10.6-5.9,25-5.9,35.6,0
		l168.9,97.8c11,6.3,17.8,18.2,17.8,30.9v195.1c0,12.7-6.8,24.5-17.8,30.9l-168.9,97.8C216.7,459.4,210.3,460.7,204.4,460.7
		L204.4,460.7z M256.5,326.5c-74.1,0-89.3-33.9-89.3-62.6c0-2.5,2.1-5.1,5.1-5.1h22c2.5,0,4.7,1.7,4.7,4.2
		c3.4,22.4,13.1,33.4,58,33.4c35.6,0,50.8-8,50.8-27.1c0-11-4.2-19-59.7-24.5c-46.1-4.7-74.9-14.8-74.9-51.6
		c0-34.3,28.8-54.6,77-54.6c54.2,0,80.8,18.6,84.2,59.3c0,1.3-0.4,2.5-1.3,3.8c-0.8,0.8-2.1,1.7-3.4,1.7h-22c-2.1,0-4.2-1.7-4.7-3.8
		c-5.1-23.3-18.2-30.9-52.9-30.9c-38.9,0-43.6,13.5-43.6,23.7c0,12.3,5.5,16.1,58,22.9c52.1,6.8,76.6,16.5,76.6,52.9
		C340.7,305.4,310.2,326.5,256.5,326.5L256.5,326.5z"/>
</g>
</svg>
