<?xml version="1.0" encoding="utf-8"?>
<!-- Generator: Adobe Illustrator 21.0.0, SVG Export Plug-In . SVG Version: 6.00 Build 0)  -->
<svg version="1.1" id="Capa_1" xmlns="http://www.w3.org/2000/svg" xmlns:xlink="http://www.w3.org/1999/xlink" x="0px" y="0px"
	 viewBox="0 0 512 512" style="enable-background:new 0 0 512 512;" xml:space="preserve">
<style type="text/css">
	.st0{fill:#1668AC;}
	.st1{fill:#FFFFFF;}
</style>
<g>
	<path class="st0" d="M448.3,327.5h-51.8l-10.4,56.3h-45l38-205.5h94.3c11,0,20.6,2.5,28.6,6.6C471.1,78.1,372.7,0,256,0
		C114.6,0,0,114.6,0,256c0,23.4,3.1,46.1,9,67.6l26.9-145.4h94.3c42.7,0,63.1,37,59,64.8s-21,84.4-84.1,84.4H53.3l-10.4,56.3h-8.7
		C78.3,460.4,161.1,512,256,512c125.9,0,230.6-90.9,252-210.6c2-11.3,3.3-22.8,3.8-34.5c-0.5,11.7-1.8,23.3-3.8,34.5
		C495.3,316.3,476.3,327.5,448.3,327.5z M288.2,328.1c0,0,15.6-78,18.3-95.6c2.7-17.6-10.2-21.7-29.2-21.7c-9.8,0-20.5,0-28.6,0
		L226.9,329h-44.8l38-205.5h44.8L254.7,179c11.9,0,36.3,0,54.6,0c25.1,0,47.5,13.6,44.8,38s-20.3,111.2-20.3,111.2h-45.6V328.1z"/>
	<path class="st0" d="M143.9,247.7c2.3-15.8,1.2-36.7-33.5-36.7H74.8l-15.6,84.6h35C129.9,295.6,141.5,263.5,143.9,247.7z"/>
	<path class="st0" d="M453.6,211H418l-15.6,84.6h35c35.8,0,47.4-32.1,49.7-47.9C489.4,231.9,488.3,211,453.6,211z"/>
	<path class="st1" d="M53.3,327.5h51.8c63.1,0,80-56.6,84.1-84.4c4.1-27.8-16.3-64.8-59-64.8H35.9L9,323.6
		c5.8,21.3,14.3,41.5,25.1,60.2h8.7L53.3,327.5z M74.8,211h35.6c34.7,0,35.8,21,33.5,36.7c-2.3,15.8-14,47.9-49.7,47.9h-35L74.8,211
		z"/>
	<path class="st1" d="M502,184.8c-8-4.1-17.6-6.6-28.6-6.6h-94.3l-38,205.5h45l10.4-56.3h51.8c28.1,0,47-11.2,59.7-26.1
		c2-11.3,3.3-22.8,3.8-34.5c0.1-1.7,0.1-3.4,0.2-5c0-1.9,0.1-3.9,0.1-5.8C512,231.3,508.5,207.4,502,184.8z M487.1,247.7
		c-2.3,15.8-14,47.9-49.7,47.9h-35L418,211h35.6C488.3,211,489.4,231.9,487.1,247.7z"/>
	<path class="st1" d="M309.2,178.9c-18.3,0-42.7,0-54.6,0l10.2-55.5H220l-38,205.5h44.8l21.8-118.2c8.1,0,18.8,0,28.6,0
		c19,0,31.9,4.1,29.2,21.7c-2.7,17.6-18.3,95.6-18.3,95.6h45.4c0,0,17.6-86.8,20.3-111.2C356.7,192.5,334.3,178.9,309.2,178.9z"/>
</g>
</svg>
