<svg xmlns="http://www.w3.org/2000/svg" width="45.943" height="59" viewBox="0 0 45.943 59">
  <g id="_004-security" data-name="004-security" transform="translate(-0.055 0)">
    <path id="Path_669" data-name="Path 669" d="M45.413,11.946,23.239.13a1.1,1.1,0,0,0-1.05.006L.628,11.952a1.1,1.1,0,0,0-.573.968V28.355A31.958,31.958,0,0,0,19.21,57.6l2.993,1.3a1.1,1.1,0,0,0,.878,0l3.372-1.456A31.9,31.9,0,0,0,46,28.049V12.92a1.1,1.1,0,0,0-.585-.975Zm-1.623,16.1a29.692,29.692,0,0,1-18.2,27.373l-.007,0-2.937,1.268L20.093,55.58A29.748,29.748,0,0,1,2.262,28.355V13.574L22.727,2.358,43.79,13.582Zm0,0" fill="#ed1f30"/>
    <path id="Path_670" data-name="Path 670" d="M81.786,150.647a1.1,1.1,0,0,0-1.679,1.434l5.832,6.829a1.1,1.1,0,0,0,1.536.14L101.055,148a1.1,1.1,0,1,0-1.394-1.713L86.917,156.655Zm0,0" transform="translate(-67.204 -123.008)" fill="#ed1f30"/>
  </g>
</svg>
