<?xml version="1.0" encoding="utf-8"?>
<!-- Generator: Adobe Illustrator 21.0.0, SVG Export Plug-In . SVG Version: 6.00 Build 0)  -->
<svg version="1.1" id="Layer_1" xmlns="http://www.w3.org/2000/svg" xmlns:xlink="http://www.w3.org/1999/xlink" x="0px" y="0px"
	 viewBox="0 0 512 511" style="enable-background:new 0 0 512 511;" xml:space="preserve">
<style type="text/css">
	.st0{fill:#1668AC;}
</style>
<path class="st0" d="M509.3,218.9L422.2,68c-2.1-3.6-6.7-4.8-10.2-2.7s-4.8,6.7-2.7,10.2l87.1,150.9c0.9,1.6,0.9,3.6,0,5.2
	l-77,133.4c-2.6-6.2-7.5-11.1-13.7-13.7l67-116.1c2.2-3.8,2.2-8.6,0-12.4L369.7,44.5c-2.2-3.8-6.3-6.2-10.8-6.2H153.1
	c-4.4,0-8.6,2.4-10.8,6.2L39.4,222.8c-2.2,3.8-2.2,8.6,0,12.4L82.5,310c2.1,3.6,6.7,4.8,10.2,2.8c3.6-2.1,4.8-6.7,2.8-10.2L53.1,229
	L154.6,53.2h202.9L458.9,229l-69.4,120.3H122.5l-10.3-17.9c-2.1-3.6-6.7-4.8-10.2-2.7c-3.6,2.1-4.8,6.7-2.8,10.2l7.2,12.4
	c-6.2,2.6-11.1,7.5-13.7,13.7l-77-133.4c-0.9-1.6-0.9-3.6,0-5.2L133.6,22.1c0.9-1.6,2.6-2.6,4.5-2.6h235.8c1.8,0,3.5,1,4.5,2.6
	l15.8,27.4c2.1,3.6,6.7,4.8,10.2,2.7c3.6-2.1,4.8-6.7,2.7-10.2l-15.8-27.4c-3.6-6.2-10.3-10.1-17.5-10.1H138.1
	c-7.2,0-13.9,3.9-17.5,10.1L2.7,218.9c-3.6,6.2-3.6,13.9,0,20.2l88,152.5v91.3c0,14.1,11.4,25.5,25.5,25.5H322
	c4.1,0,7.5-3.4,7.5-7.5c0-4.1-3.4-7.5-7.5-7.5H116.2c-5.8,0-10.5-4.7-10.5-10.5v-93.4c0-0.1,0-0.1,0-0.2v-14.5
	c0-5.8,4.7-10.5,10.5-10.5h2c0,0,0.1,0,0.1,0c0,0,0.1,0,0.1,0h275.4c0,0,0.1,0,0.1,0c0,0,0,0,0.1,0h2c5.8,0,10.5,4.7,10.5,10.5v14.5
	c0,0.1,0,0.1,0,0.2v93.4c0,5.8-4.7,10.5-10.5,10.5H355c-4.1,0-7.5,3.4-7.5,7.5c0,4.1,3.4,7.5,7.5,7.5h40.8
	c14.1,0,25.5-11.4,25.5-25.5v-91.3l88-152.5C512.9,232.9,512.9,225.1,509.3,218.9z"/>
<path class="st0" d="M182.6,427.1c2.7-3.8,4-8.8,4-15c0-15.9-9-23.8-27-23.8h-22.5c-1.4,0-2.5,0.5-3.4,1.4c-0.9,0.9-1.4,2-1.4,3.2
	v74c0,1.4,0.7,2.6,2.2,3.4s3.2,1.3,5.2,1.3c2.1,0,3.8-0.4,5.2-1.3s2.2-2,2.2-3.4v-29.7h9.6l16.2,31.4c1.2,2.4,2.9,3.5,5.1,3.5
	c2.2,0,4.3-0.8,6.3-2.4c2-1.6,3-3.4,3-5.3c0-0.8-0.2-1.4-0.6-1.8l-14.9-27.7C176.2,433.4,179.9,430.9,182.6,427.1z M159.6,425.5
	h-12.5v-24.3h12.5c8.1,0,12.2,4.1,12.2,12.2C171.8,421.4,167.7,425.5,159.6,425.5z"/>
<path class="st0" d="M230.4,448.2c1.6,0,2.9-0.1,3.9-0.2c1-0.1,2.1-0.5,3.2-1.1c1.2-0.6,2-1.6,2.6-3.1c0.6-1.5,0.9-3.3,0.9-5.6
	c0-6.2-2.3-11.3-6.9-15.4s-10.1-6.1-16.6-6.1c-6.9,0-12.8,2.2-17.6,6.7c-4.9,4.5-7.3,9.8-7.3,16.1v9.7c0,7,2.6,12.6,7.7,16.9
	c5.1,4.3,11.7,6.4,19.9,6.4c5.7,0,10.4-1,14.3-3.1c3.8-2.1,5.7-4.2,5.7-6.3c0-1.4-0.5-2.8-1.6-4.3s-2.4-2.2-4-2.2
	c-0.8,0-2.7,0.7-5.5,2.2c-2.8,1.4-5.7,2.2-8.5,2.2c-4,0-7.2-1-9.7-3c-2.4-2-3.6-4.6-3.6-7.9v-1.7H230.4z M207.3,436.6
	c0-2.5,1-4.5,3-6c2-1.5,4.3-2.3,6.9-2.3c2.8,0,5.2,0.8,7.1,2.3s2.9,3.6,2.9,6.1c0,1.1-0.2,1.9-0.7,2.3c-0.5,0.4-1.3,0.6-2.6,0.6
	h-16.6L207.3,436.6L207.3,436.6z"/>
<path class="st0" d="M280.5,470c1.3,1,2.8,1.5,4.7,1.5c2,0,3.8-0.5,5.1-1.4c1.4-0.9,2-2,2-3.3v-27.9c0-6.4-2-11.7-6-15.9
	s-10.2-6.3-18.4-6.3c-4.3,0-8.4,0.8-12.3,2.4c-3.9,1.6-5.9,3.6-5.9,5.8c0,1.8,0.5,3.5,1.4,5c0.9,1.5,2.1,2.3,3.6,2.3
	c0.4,0,1.8-0.6,4.2-1.9c2.4-1.3,5.3-1.9,8.8-1.9s5.9,1.1,7.6,3.2c1.6,2.1,2.4,4.7,2.4,7.6v1.5h-4.7c-8.6,0-15.1,1.2-19.7,3.7
	c-4.6,2.4-6.8,6.6-6.8,12.6c0,5.1,1.4,9,4.2,11.6s6.3,4,10.6,4c6.3,0,12.1-3.2,17.3-9.5v3.5C278.6,467.8,279.3,469,280.5,470z
	 M277.7,450.5c0,2.6-1.1,5-3.4,7.1c-2.3,2.2-4.6,3.2-7.1,3.2c-1.8,0-3.3-0.5-4.4-1.5c-1.1-1-1.6-2.4-1.6-4.4c0-2.7,1.3-4.6,3.9-5.5
	c2.6-0.9,6.2-1.4,10.9-1.4h1.7V450.5z"/>
<path class="st0" d="M338.7,456.2c-0.6,0-2,0.6-4.2,1.7s-4.6,1.6-7.2,1.6c-7.4,0-11.2-3.5-11.2-10.4v-9c0-6.9,3.7-10.4,11-10.4
	c2.6,0,5,0.5,7.2,1.5c2.2,1,3.6,1.5,4,1.5c1.6,0,3-0.8,4.1-2.4s1.7-3.2,1.7-4.8c0-2.3-1.7-4.3-5.2-6.1s-7.8-2.7-13-2.7
	c-8.2,0-14.3,2.1-18.4,6.4c-4.1,4.3-6.1,9.9-6.1,16.9v9.1c0,7.1,2,12.7,6.1,17c4.1,4.3,10.3,6.4,18.5,6.4c5.2,0,9.6-1,13.3-2.9
	s5.5-4.1,5.5-6.4c0-1.6-0.6-3.1-1.8-4.7C342,457,340.5,456.2,338.7,456.2z"/>
<path class="st0" d="M365.1,395.4c-1.5-0.8-3.2-1.3-5.2-1.3c-1.8,0-3.5,0.4-5,1.3c-1.5,0.9-2.3,1.9-2.3,3.2v54.6
	c0,12.2,7,18.2,21,18.2h4.4c2,0,3.5-0.6,4.6-1.9c1.1-1.3,1.6-2.8,1.6-4.6c0-1.7-0.6-3.3-1.6-4.5c-1.1-1.3-2.6-1.9-4.6-1.9h-4.4
	c-2.4,0-4-0.4-4.9-1.3s-1.4-2.3-1.4-4.4V429h13.4c1.1,0,2.1-0.6,2.7-1.7c0.7-1.2,1-2.5,1-4.1c0-1.6-0.3-2.9-1-4.1s-1.6-1.7-2.7-1.7
	h-13.4v-18.8C367.3,397.3,366.5,396.3,365.1,395.4z"/>
<path class="st0" d="M256,230c13.2,0,23.9-10.7,23.9-23.9s-10.7-23.9-23.9-23.9s-23.9,10.7-23.9,23.9S242.8,230,256,230z M256,197.1
	c4.9,0,8.9,4,8.9,8.9c0,4.9-4,8.9-8.9,8.9s-8.9-4-8.9-8.9C247.1,201.1,251.1,197.1,256,197.1z"/>
<path class="st0" d="M130.4,206.1c0,16.5,13.9,31.5,39.2,42.1c2.6,1.1,5.3,2.1,8.1,3.1c-0.5,2.9-1,5.8-1.4,8.6
	c-3.4,27.2,2.6,46.8,16.9,55c4.6,2.7,9.9,4,15.6,4c11.8,0,25.7-5.7,40.5-16.9c2.3-1.7,4.5-3.5,6.8-5.5c2.3,1.9,4.5,3.8,6.8,5.5
	c14.8,11.2,28.6,16.9,40.5,16.9c5.7,0,10.9-1.3,15.6-4c14.3-8.3,20.3-27.8,16.9-55c-0.4-2.8-0.8-5.7-1.4-8.6c2.8-1,5.5-2,8.1-3.1
	c25.3-10.7,39.2-25.6,39.2-42.1s-13.9-31.5-39.2-42.1c-2.6-1.1-5.3-2.1-8.1-3.1c0.5-2.9,1-5.8,1.4-8.6c3.4-27.2-2.6-46.8-16.9-55
	c-14.3-8.3-34.2-3.7-56.1,12.9c-2.3,1.7-4.5,3.5-6.8,5.5c-2.3-1.9-4.5-3.8-6.8-5.5c-21.9-16.6-41.8-21.1-56.1-12.9
	c-14.3,8.3-20.3,27.8-16.9,55c0.4,2.8,0.8,5.7,1.4,8.6c-2.8,1-5.5,2-8.1,3.1C144.3,174.6,130.4,189.5,130.4,206.1z M200.7,301.9
	c-9.3-5.4-12.6-22.6-8.6-46.2c9.9,2.6,20.7,4.6,31.9,5.8c6.7,9.1,13.8,17.4,21,24.7c-1.6,1.3-3.2,2.6-4.8,3.8
	C223.7,302.6,209.3,306.9,200.7,301.9z M200.7,187.7c-2.1-5.8-3.9-11.3-5.3-16.7c5.4-1.4,11.1-2.7,17.1-3.7
	c-2.1,3.3-4.1,6.6-6.1,10.1C204.4,180.8,202.5,184.3,200.7,187.7z M219.4,184.9c4.1-7,8.4-13.8,12.8-20.1c7.6-0.7,15.5-1,23.8-1
	s16.2,0.4,23.8,1c4.5,6.4,8.8,13.1,12.8,20.1c4.1,7.2,7.8,14.2,11,21.1c-3.2,6.9-6.9,14-11,21.1c-4.1,7-8.4,13.8-12.8,20.1
	c-7.6,0.7-15.5,1-23.8,1s-16.2-0.4-23.8-1c-4.5-6.4-8.8-13.1-12.8-20.1c-4.1-7.2-7.8-14.2-11-21.1
	C211.6,199.2,215.3,192.1,219.4,184.9z M256,136c4,4,7.9,8.3,11.8,13c-3.9-0.2-7.8-0.2-11.8-0.2c-3.9,0-7.9,0.1-11.8,0.2
	C248.1,144.4,252,140.1,256,136z M305.6,177.4c-2-3.4-4-6.8-6.1-10.1c6,1,11.8,2.3,17.1,3.7c-1.4,5.3-3.2,10.9-5.3,16.7
	C309.5,184.3,307.6,180.8,305.6,177.4z M311.3,224.4c2.1,5.8,3.9,11.3,5.3,16.7c-5.4,1.4-11.1,2.7-17.1,3.7
	c2.1-3.3,4.1-6.6,6.1-10.1C307.6,231.3,309.5,227.8,311.3,224.4z M256,276.1c-4-4-7.9-8.3-11.8-13c3.9,0.2,7.8,0.2,11.8,0.2
	c4,0,7.9-0.1,11.8-0.2C263.9,267.7,260,272.1,256,276.1z M206.4,234.7c2,3.4,4,6.8,6.1,10.1c-6-1-11.8-2.3-17.1-3.7
	c1.4-5.3,3.2-10.9,5.3-16.7C202.5,227.8,204.4,231.3,206.4,234.7z M311.3,301.9c-8.6,5-23,0.6-39.5-11.9c-1.6-1.2-3.2-2.5-4.8-3.8
	c7.2-7.3,14.3-15.6,21-24.7c11.2-1.3,21.9-3.2,31.9-5.8C324,279.3,320.7,296.5,311.3,301.9z M366.6,206.1
	c0,10.8-13.3,22.3-35.7,30.5c-2.7-9.9-6.4-20.2-10.9-30.5c4.5-10.4,8.2-20.6,10.9-30.5C353.4,183.8,366.6,195.3,366.6,206.1z
	 M311.3,110.2c9.3,5.4,12.6,22.6,8.6,46.2c-9.9-2.6-20.6-4.6-31.9-5.8c-6.7-9.1-13.8-17.4-21-24.7c1.6-1.3,3.2-2.6,4.8-3.8
	C288.3,109.6,302.7,105.2,311.3,110.2z M200.7,110.2c2.3-1.4,5.1-2,8.2-2c8.4,0,19.3,4.8,31.3,13.9c1.6,1.2,3.2,2.5,4.8,3.8
	c-7.2,7.3-14.3,15.6-21,24.7c-11.2,1.3-21.9,3.2-31.9,5.8C188,132.8,191.3,115.6,200.7,110.2z M192,206.1
	c-4.5,10.4-8.2,20.6-10.9,30.5c-22.5-8.3-35.7-19.7-35.7-30.5s13.3-22.3,35.7-30.5C183.8,185.4,187.5,195.7,192,206.1z"/>
</svg>
