<svg id="SvgjsSvg1001" width="288" height="288" xmlns="http://www.w3.org/2000/svg" version="1.1" xmlns:xlink="http://www.w3.org/1999/xlink" xmlns:svgjs="http://svgjs.com/svgjs"><defs id="SvgjsDefs1002"></defs><g id="SvgjsG1008" transform="matrix(0.9167,0,0,0.9167,11.995200000000011,11.995199841117852)"><svg xmlns="http://www.w3.org/2000/svg" enable-background="new 0 0 511 511" viewBox="0 0 511 511" width="288" height="288"><path d="M39.5 103c1.97 0 3.91-.8 5.3-2.2 1.4-1.39 2.2-3.33 2.2-5.3s-.8-3.91-2.2-5.3c-1.39-1.4-3.32-2.2-5.3-2.2s-3.91.8-5.3 2.2c-1.4 1.39-2.2 3.33-2.2 5.3s.8 3.91 2.2 5.3C35.59 102.2 37.53 103 39.5 103zM63.5 103c1.98 0 3.91-.8 5.3-2.2 1.4-1.39 2.2-3.33 2.2-5.3s-.8-3.91-2.2-5.3c-1.39-1.4-3.33-2.2-5.3-2.2-1.97 0-3.91.8-5.3 2.2-1.4 1.39-2.2 3.33-2.2 5.3s.8 3.91 2.2 5.3C59.59 102.2 61.53 103 63.5 103zM87.5 103c1.97 0 3.91-.8 5.3-2.2 1.4-1.39 2.2-3.33 2.2-5.3s-.8-3.91-2.2-5.3c-1.39-1.4-3.33-2.2-5.3-2.2-1.97 0-3.91.8-5.3 2.2-1.4 1.39-2.2 3.33-2.2 5.3s.8 3.91 2.2 5.3C83.59 102.2 85.53 103 87.5 103zM119.5 103h304c4.142 0 7.5-3.358 7.5-7.5s-3.358-7.5-7.5-7.5h-304c-4.142 0-7.5 3.358-7.5 7.5S115.358 103 119.5 103zM455.5 103h16c4.142 0 7.5-3.358 7.5-7.5s-3.358-7.5-7.5-7.5h-16c-4.142 0-7.5 3.358-7.5 7.5S451.358 103 455.5 103zM439.5 168h-144c-12.958 0-23.5 10.542-23.5 23.5v.5h-8.5c-12.958 0-23.5 10.542-23.5 23.5V280h-17v-24.5c0-12.958-10.542-23.5-23.5-23.5h-128C58.542 232 48 242.542 48 255.5v64c0 12.958 10.542 23.5 23.5 23.5h128c12.958 0 23.5-10.542 23.5-23.5V295h17v64.5c0 12.958 10.542 23.5 23.5 23.5h8.5v.5c0 12.958 10.542 23.5 23.5 23.5h144c12.958 0 23.5-10.542 23.5-23.5v-16c0-12.958-10.542-23.5-23.5-23.5h-144c-12.958 0-23.5 10.542-23.5 23.5v.5h-8.5c-4.687 0-8.5-3.813-8.5-8.5V295h17v.5c0 12.958 10.542 23.5 23.5 23.5h144c12.958 0 23.5-10.542 23.5-23.5v-16c0-12.958-10.542-23.5-23.5-23.5h-144c-12.958 0-23.5 10.542-23.5 23.5v.5h-17v-64.5c0-4.687 3.813-8.5 8.5-8.5h8.5v.5c0 12.958 10.542 23.5 23.5 23.5h144c12.958 0 23.5-10.542 23.5-23.5v-16C463 178.542 452.458 168 439.5 168zM208 319.5c0 4.687-3.813 8.5-8.5 8.5h-128c-4.687 0-8.5-3.813-8.5-8.5v-64c0-4.687 3.813-8.5 8.5-8.5h128c4.687 0 8.5 3.813 8.5 8.5V319.5zM287 367.5c0-4.687 3.813-8.5 8.5-8.5h144c4.687 0 8.5 3.813 8.5 8.5v16c0 4.687-3.813 8.5-8.5 8.5h-144c-4.687 0-8.5-3.813-8.5-8.5V367.5zM287 279.5c0-4.687 3.813-8.5 8.5-8.5h144c4.687 0 8.5 3.813 8.5 8.5v16c0 4.687-3.813 8.5-8.5 8.5h-144c-4.687 0-8.5-3.813-8.5-8.5V279.5zM448 207.5c0 4.687-3.813 8.5-8.5 8.5h-144c-4.687 0-8.5-3.813-8.5-8.5v-16c0-4.687 3.813-8.5 8.5-8.5h144c4.687 0 8.5 3.813 8.5 8.5V207.5z" fill="#ffffff" class="color000 svgShape"></path><path d="M471.5,56h-432C17.72,56,0,73.72,0,95.5v320C0,437.28,17.72,455,39.5,455h432c21.78,0,39.5-17.72,39.5-39.5v-320
		C511,73.72,493.28,56,471.5,56z M39.5,71h432c13.509,0,24.5,10.991,24.5,24.5V120H15V95.5C15,81.991,25.991,71,39.5,71z M471.5,440
		h-432C25.991,440,15,429.009,15,415.5V135h481v280.5C496,429.009,485.009,440,471.5,440z" fill="#ffffff" class="color000 svgShape"></path></svg></g></svg>